<svg width="150" height="150" viewBox="0 0 150 150" fill="none" xmlns="http://www.w3.org/2000/svg">
<g clip-path="url(#clip0_11_198)">
<rect width="150" height="82" rx="20" fill="#ACDAEF"/>
<path d="M81.8253 144.39H67.6061V70.4496H81.8253V144.39Z" fill="#BC8544"/>
<path d="M135.858 115.951C135.858 116.957 135.182 117.838 134.209 118.097L110.263 124.482V107.419L134.209 113.805C135.182 114.064 135.858 114.945 135.858 115.951Z" fill="#F24F43"/>
<path d="M141.546 64.7619C141.546 74.1855 133.906 81.8249 124.483 81.8249H39.1675C32.847 81.8249 27.3333 78.3858 24.3846 73.2791C15.2223 72.9811 7.88525 65.465 7.88525 56.2304V50.5427C7.88525 41.1191 15.5247 33.4797 24.9483 33.4797H32.1403C29.4374 30.4607 27.7921 26.4754 27.7921 22.1044V19.2605C27.7921 9.83693 35.4315 2.19751 44.8551 2.19751H70.4497C79.8733 2.19751 87.5127 9.83693 87.5127 19.2605H115.951C125.375 19.2605 133.014 26.9 133.014 36.3235V42.0112C133.014 44.5726 132.446 47.0002 131.435 49.1801C137.392 51.842 141.546 57.8151 141.546 64.7619Z" fill="#C0F283"/>
<path d="M147.802 59.0743C147.802 65.3567 142.71 70.4497 136.427 70.4497H98.8883C92.6059 70.4497 87.513 65.3567 87.513 59.0743C87.513 58.0923 87.6375 57.1396 87.8713 56.2305H67.6058C64.3586 56.2305 61.4312 54.8676 59.3588 52.6853C57.286 54.8676 54.359 56.2305 51.1117 56.2305H13.5729C7.29052 56.2305 2.19757 51.1375 2.19757 44.8552C2.19757 38.5728 7.29052 33.4798 13.5729 33.4798H13.9312C13.6971 32.5707 13.5729 31.618 13.5729 30.636C13.5729 24.3536 18.6659 19.2606 24.9483 19.2606H62.4871C68.7695 19.2606 73.8624 24.3536 73.8624 30.636C73.8624 31.618 73.7379 32.5707 73.5041 33.4798H105.145C111.427 33.4798 116.52 38.5728 116.52 44.8552C116.52 45.8372 116.396 46.7899 116.162 47.699H136.427C142.71 47.699 147.802 52.7919 147.802 59.0743Z" fill="#9BEE8B"/>
<path d="M133.014 147.802H27.7921C27.7921 141.52 51.3469 136.427 80.4032 136.427C109.459 136.427 133.014 141.52 133.014 147.802Z" fill="#83D023"/>
<path d="M71.1697 136.602C74.1677 136.487 77.2529 136.427 80.4032 136.427C109.459 136.427 133.014 141.52 133.014 147.802H118.311C109.605 141.836 92.0519 137.503 71.1697 136.602Z" fill="#CDEDC6"/>
<path d="M93.705 19.3274C93.705 18.1136 94.6885 17.1301 95.9023 17.1301H115.951C126.572 17.1301 135.212 25.8005 135.212 36.4575V39.0271C135.212 40.2409 134.228 41.2243 133.015 41.2243C131.801 41.2243 130.817 40.2409 130.817 39.0271V36.4575C130.817 28.2236 124.148 21.5246 115.951 21.5246H95.9023C94.6885 21.5246 93.705 20.5408 93.705 19.3274ZM109.555 72.9146L107.527 79.9397H124.483C127.64 79.9397 130.654 78.9592 133.2 77.1041C134.181 76.3901 135.556 76.6052 136.27 77.586C136.985 78.5669 136.769 79.9412 135.788 80.656C132.486 83.0625 128.576 84.3345 124.483 84.3345H106.259L104.535 90.3078C102.188 98.5543 94.5722 104.32 86.0172 104.32H84.0221V134.211C92.6128 134.336 100.816 134.905 108.066 135.867V104.977C108.066 103.763 109.049 102.78 110.263 102.78C111.477 102.78 112.46 103.763 112.46 104.977V106.146L134.777 112.12C136.707 112.637 138.055 114.396 138.055 116.397C138.055 118.399 136.707 120.158 134.777 120.674L112.46 126.649V136.518C114.423 136.841 116.298 137.196 118.071 137.58C129.604 140.084 135.211 143.428 135.211 147.803C135.211 149.017 134.228 150 133.014 150H56.1357C54.9219 150 53.9384 149.017 53.9384 147.803C53.9384 146.589 54.9219 145.605 56.1357 145.605H128.431C126.446 144.494 122.975 143.142 117.139 141.875C107.351 139.75 94.3044 138.58 80.4031 138.58C66.5018 138.58 53.4559 139.75 43.6673 141.875C37.8317 143.142 34.36 144.494 32.3749 145.605H47.8884C49.1021 145.605 50.0856 146.589 50.0856 147.803C50.0856 149.017 49.1021 150 47.8884 150H27.792C26.5782 150 25.5947 149.017 25.5947 147.803C25.5947 143.428 31.2015 140.084 42.7354 137.58C49.1675 136.184 56.9381 135.188 65.4087 134.649V104.319H64.8111C58.7821 104.319 53.4155 100.257 51.7599 94.4407L48.8839 84.3342H39.1676C32.71 84.3342 26.6635 81.0454 23.1121 75.6768C16.061 75.0006 9.87554 70.4502 7.14361 63.823C6.68102 62.7012 7.21539 61.4166 8.33746 60.9543C9.45894 60.4914 10.7436 61.026 11.2062 62.1481C13.4351 67.5548 18.6361 71.1715 24.4565 71.3616C25.2168 71.3865 25.9102 71.8028 26.2893 72.4623C28.9425 77.0745 33.8766 79.9394 39.1676 79.9394H50.494C50.5271 79.9388 50.5611 79.9388 50.5942 79.9394H95.7602C96.9739 79.9394 97.9574 80.9229 97.9574 82.1367C97.9574 83.3504 96.9739 84.3339 95.7602 84.3339H84.0227V99.9245H86.0178C92.619 99.9245 98.4968 95.472 100.311 89.0964L104.982 72.9144H98.8885C91.4046 72.9144 85.3159 66.8057 85.3159 59.2972C85.3159 58.1462 85.4597 57.0018 85.7433 55.8965C86.0445 54.7211 87.241 54.0118 88.4175 54.3141C89.5932 54.6156 90.3016 55.813 89.9998 56.9883C89.8079 57.7378 89.7104 58.5144 89.7104 59.2975C89.7104 64.3829 93.8277 68.5201 98.8885 68.5201H136.427C141.488 68.5201 145.605 64.3829 145.605 59.2975C145.605 54.2122 141.488 50.0749 136.427 50.0749H116.162C115.483 50.0749 114.842 49.7611 114.426 49.2247C114.01 48.6883 113.865 47.9896 114.033 47.3318C114.225 46.5824 114.323 45.8055 114.323 45.0227C114.323 39.9373 110.206 35.8001 105.145 35.8001H67.606C62.5453 35.8001 58.4279 39.9373 58.4279 45.0227C58.4279 50.108 62.5453 54.2453 67.606 54.2453H73.5781C74.7919 54.2453 75.7754 55.2288 75.7754 56.4426C75.7754 57.6563 74.7919 58.6398 73.5781 58.6398H67.606C60.1221 58.6398 54.0334 52.5311 54.0334 45.0227C54.0334 37.5142 60.1221 31.4055 67.606 31.4055H105.145C112.629 31.4055 118.717 37.5142 118.717 45.0227C118.717 45.2421 118.712 45.4615 118.702 45.6804H136.427C143.911 45.6804 150 51.7891 150 59.2975C150 66.806 143.911 72.9146 136.427 72.9146H109.555ZM65.4087 84.3342H53.4527L55.9866 93.2381C57.1069 97.175 60.7356 99.9248 64.8108 99.9248H65.4084V84.3342H65.4087ZM79.6279 84.3342H69.8032V134.414C73.0086 134.273 76.2936 134.196 79.6279 134.186V84.3342ZM112.461 122.099L133.641 116.429C133.649 116.427 133.661 116.417 133.661 116.397C133.661 116.378 133.649 116.368 133.641 116.366L112.461 110.696V122.099ZM51.1116 58.6395C52.3254 58.6395 53.3089 57.656 53.3089 56.4423C53.3089 55.2285 52.3254 54.245 51.1116 54.245H13.5728C8.51206 54.245 4.3947 50.1077 4.3947 45.0224C4.3947 39.937 8.51206 35.7998 13.5728 35.7998H13.9314C14.6102 35.7998 15.2512 35.486 15.6675 34.9496C16.0835 34.4131 16.2285 33.7144 16.0598 33.0567C15.8679 32.3073 15.7703 31.5303 15.7703 30.7475C15.7703 25.6622 19.8877 21.5249 24.9484 21.5249H62.4872C65.7055 21.5249 68.6331 23.1732 70.318 25.9338C70.9502 26.97 72.3028 27.2967 73.3382 26.6644C74.3741 26.0322 74.7011 24.6802 74.0688 23.6442C71.5792 19.5653 67.2497 17.1304 62.4872 17.1304H30.1498C31.2106 9.93395 37.401 4.39451 44.855 4.39451H70.4495C78.6465 4.39451 85.3153 11.0932 85.3153 19.3274C85.3153 20.5411 86.2988 21.5246 87.5125 21.5246C88.7263 21.5246 89.7098 20.5411 89.7098 19.3274C89.7101 8.67038 81.0699 0 70.4498 0H44.8553C34.9752 0 26.8091 7.50349 25.7186 17.1301H24.9484C17.4643 17.1301 11.3758 23.2388 11.3758 30.7472C11.3758 31.025 11.384 31.3027 11.401 31.5793C4.94548 32.6252 0.000183105 38.2551 0.000183105 45.0224C0.000183105 52.5311 6.08893 58.6395 13.5728 58.6395H51.1116Z" fill="black"/>
</g>
<defs>
<clipPath id="clip0_11_198">
<rect width="150" height="150" fill="white"/>
</clipPath>
</defs>
</svg>
